<svg width="93" height="94" viewBox="0 0 93 94" fill="none" xmlns="http://www.w3.org/2000/svg">
<path d="M46.5 69.9653C44.2008 69.9653 41.9532 69.2835 40.0415 68.0062C38.1298 66.7288 36.6398 64.9132 35.7599 62.789C34.88 60.6648 34.6498 58.3274 35.0984 56.0724C35.5469 53.8174 36.6541 51.746 38.2799 50.1202C39.9057 48.4944 41.9771 47.3873 44.2321 46.9387C46.4871 46.4902 48.8245 46.7204 50.9487 47.6002C53.0729 48.4801 54.8885 49.9701 56.1658 51.8818C57.4432 53.7936 58.125 56.0411 58.125 58.3403C58.1215 61.4224 56.8957 64.3773 54.7163 66.5566C52.5369 68.736 49.5821 69.9619 46.5 69.9653ZM46.5 49.6216C44.7756 49.6216 43.0899 50.1329 41.6561 51.091C40.2223 52.049 39.1048 53.4107 38.4449 55.0038C37.785 56.597 37.6124 58.35 37.9488 60.0413C38.2852 61.7326 39.1156 63.2861 40.3349 64.5054C41.5543 65.7248 43.1078 66.5551 44.7991 66.8916C46.4903 67.228 48.2434 67.0553 49.8365 66.3954C51.4297 65.7355 52.7914 64.618 53.7494 63.1842C54.7074 61.7504 55.2188 60.0647 55.2188 58.3403C55.2164 56.0287 54.2971 53.8124 52.6625 52.1778C51.028 50.5432 48.8117 49.6239 46.5 49.6216Z" fill="#2E4C99"/>
<path d="M63.9375 88.856C63.5521 88.856 63.1825 88.7029 62.91 88.4303C62.6375 88.1578 62.4844 87.7882 62.4844 87.4028V78.6841C62.4844 77.2048 56.8419 74.3247 46.5 74.3247C36.1581 74.3247 30.5156 77.2048 30.5156 78.6841V87.4028C30.5156 87.7882 30.3625 88.1578 30.09 88.4303C29.8175 88.7029 29.4479 88.856 29.0625 88.856C28.6771 88.856 28.3075 88.7029 28.035 88.4303C27.7625 88.1578 27.6094 87.7882 27.6094 87.4028V78.6841C27.6094 73.9135 37.1128 71.4185 46.5 71.4185C55.8872 71.4185 65.3906 73.9135 65.3906 78.6841V87.4028C65.3906 87.7882 65.2375 88.1578 64.965 88.4303C64.6925 88.7029 64.3229 88.856 63.9375 88.856Z" fill="#2E4C99"/>
<path d="M71.2031 62.6997C68.9039 62.6997 66.6564 62.0179 64.7446 60.7405C62.8329 59.4632 61.3429 57.6476 60.463 55.5234C59.5832 53.3992 59.3529 51.0618 59.8015 48.8068C60.2501 46.5518 61.3572 44.4804 62.983 42.8546C64.6088 41.2288 66.6802 40.1216 68.9352 39.6731C71.1902 39.2245 73.5276 39.4547 75.6518 40.3346C77.776 41.2145 79.5916 42.7045 80.869 44.6162C82.1463 46.5279 82.8281 48.7755 82.8281 51.0747C82.8247 54.1568 81.5988 57.1116 79.4194 59.291C77.2401 61.4704 74.2852 62.6963 71.2031 62.6997ZM71.2031 42.356C69.4787 42.356 67.793 42.8673 66.3593 43.8253C64.9255 44.7834 63.808 46.145 63.1481 47.7382C62.4882 49.3313 62.3155 51.0844 62.6519 52.7757C62.9883 54.4669 63.8187 56.0205 65.038 57.2398C66.2574 58.4591 67.8109 59.2895 69.5022 59.6259C71.1935 59.9624 72.9465 59.7897 74.5397 59.1298C76.1328 58.4699 77.4945 57.3524 78.4525 55.9186C79.4105 54.4848 79.9219 52.7991 79.9219 51.0747C79.9196 48.7631 79.0003 46.5468 77.3657 44.9122C75.7311 43.2776 73.5148 42.3583 71.2031 42.356Z" fill="#2E4C99"/>
<path d="M88.6404 81.5903C88.255 81.5903 87.8854 81.4372 87.6129 81.1647C87.3404 80.8922 87.1873 80.5226 87.1873 80.1372V71.4185C87.1873 69.9392 81.5448 67.0591 71.2029 67.0591C65.2451 67.0591 59.7232 68.0981 56.8169 69.7706C56.6516 69.8675 56.4688 69.9308 56.2789 69.9568C56.089 69.9827 55.8959 69.9709 55.7106 69.9219C55.5253 69.8729 55.3516 69.7878 55.1994 69.6713C55.0471 69.5549 54.9194 69.4096 54.8236 69.2436C54.7278 69.0776 54.6657 68.8944 54.641 68.7043C54.6163 68.5143 54.6295 68.3212 54.6797 68.1363C54.7299 67.9513 54.8162 67.7782 54.9336 67.6267C55.051 67.4753 55.1972 67.3485 55.3638 67.2538C58.7423 65.3153 64.6638 64.1528 71.2029 64.1528C80.5901 64.1528 90.0935 66.6478 90.0935 71.4185V80.1372C90.0935 80.5226 89.9404 80.8922 89.6679 81.1647C89.3954 81.4372 89.0258 81.5903 88.6404 81.5903Z" fill="#2E4C99"/>
<path d="M21.7969 62.6997C19.4977 62.6997 17.2501 62.0179 15.3384 60.7405C13.4267 59.4632 11.9366 57.6476 11.0568 55.5234C10.1769 53.3992 9.9467 51.0618 10.3953 48.8068C10.8438 46.5518 11.951 44.4804 13.5768 42.8546C15.2025 41.2288 17.2739 40.1216 19.529 39.6731C21.784 39.2245 24.1214 39.4547 26.2456 40.3346C28.3698 41.2145 30.1853 42.7045 31.4627 44.6162C32.7401 46.5279 33.4219 48.7755 33.4219 51.0747C33.4184 54.1568 32.1925 57.1116 30.0132 59.291C27.8338 61.4704 24.879 62.6963 21.7969 62.6997ZM21.7969 42.356C20.0725 42.356 18.3868 42.8673 16.953 43.8253C15.5192 44.7834 14.4017 46.145 13.7418 47.7382C13.0819 49.3313 12.9092 51.0844 13.2457 52.7757C13.5821 54.4669 14.4125 56.0205 15.6318 57.2398C16.8511 58.4591 18.4047 59.2895 20.0959 59.6259C21.7872 59.9624 23.5403 59.7897 25.1334 59.1298C26.7265 58.4699 28.0882 57.3524 29.0463 55.9186C30.0043 54.4848 30.5156 52.7991 30.5156 51.0747C30.5133 48.7631 29.594 46.5468 27.9594 44.9122C26.3248 43.2776 24.1085 42.3583 21.7969 42.356Z" fill="#2E4C99"/>
<path d="M4.35938 81.5903C3.97398 81.5903 3.60437 81.4372 3.33186 81.1647C3.05935 80.8922 2.90625 80.5226 2.90625 80.1372V71.4185C2.90625 66.6478 12.4097 64.1528 21.7969 64.1528C28.3359 64.1528 34.2574 65.3153 37.6272 67.2538C37.7938 67.3485 37.94 67.4753 38.0574 67.6267C38.1749 67.7782 38.2612 67.9513 38.3114 68.1363C38.3616 68.3212 38.3747 68.5143 38.35 68.7043C38.3253 68.8944 38.2633 69.0776 38.1674 69.2436C38.0716 69.4096 37.9439 69.5549 37.7917 69.6713C37.6395 69.7878 37.4657 69.8729 37.2804 69.9219C37.0952 69.9709 36.902 69.9827 36.7122 69.9568C36.5223 69.9308 36.3394 69.8675 36.1741 69.7706C33.2766 68.0981 27.762 67.0591 21.7969 67.0591C11.455 67.0591 5.8125 69.9392 5.8125 71.4185V80.1372C5.8125 80.5226 5.6594 80.8922 5.38689 81.1647C5.11438 81.4372 4.74477 81.5903 4.35938 81.5903Z" fill="#2E4C99"/>
<path d="M46.4997 35.0904C46.2123 35.0904 45.9314 35.0051 45.6925 34.8454C45.4536 34.6858 45.2674 34.4588 45.1575 34.1934C45.0475 33.9279 45.0187 33.6357 45.0748 33.3539C45.1308 33.0721 45.2692 32.8132 45.4723 32.61L67.3724 10.7099C67.6464 10.4452 68.0135 10.2987 68.3945 10.3021C68.7755 10.3054 69.14 10.4582 69.4094 10.7276C69.6788 10.997 69.8316 11.3615 69.835 11.7425C69.8383 12.1235 69.6918 12.4906 69.4271 12.7646L47.5271 34.6647C47.2546 34.9372 46.8851 35.0904 46.4997 35.0904Z" fill="#2E4C99"/>
<path d="M66.8435 22.0121C66.7244 22.012 66.6059 21.9973 66.4904 21.9685L60.6779 20.5154C60.4285 20.4529 60.2002 20.3253 60.0163 20.1458C59.8323 19.9663 59.6993 19.7411 59.6307 19.4934C59.5622 19.2457 59.5606 18.9842 59.6261 18.7356C59.6916 18.487 59.8219 18.2603 60.0036 18.0785L67.2692 10.8129C67.4467 10.6354 67.6672 10.5069 67.9091 10.4399C68.151 10.3729 68.4062 10.3697 68.6497 10.4307L74.4622 11.8838C74.7115 11.9463 74.9398 12.0739 75.1238 12.2534C75.3077 12.433 75.4408 12.6581 75.5093 12.9058C75.5779 13.1536 75.5795 13.4151 75.514 13.6636C75.4485 13.9122 75.3182 14.1389 75.1365 14.3207L67.8708 21.5863C67.5984 21.8589 67.2288 22.012 66.8435 22.0121ZM63.8733 18.3183L66.3974 18.9504L71.2668 14.081L68.7427 13.4488L63.8733 18.3183Z" fill="#2E4C99"/>
<path d="M61.0317 20.559C60.9006 20.5589 60.7701 20.5413 60.6437 20.5067C60.3968 20.4374 60.1726 20.3039 59.9939 20.1199C59.8153 19.9359 59.6885 19.7079 59.6265 19.459L58.1734 13.6465C58.1124 13.403 58.1156 13.1479 58.1826 12.9059C58.2495 12.664 58.378 12.4436 58.5556 12.2661L65.8212 5.00044C66.003 4.8187 66.2297 4.68843 66.4783 4.62293C66.7268 4.55742 66.9883 4.55902 67.2361 4.62757C67.4838 4.69612 67.7089 4.82915 67.8885 5.01311C68.068 5.19706 68.1956 5.42535 68.2581 5.67469L69.7112 11.4872C69.7722 11.7307 69.769 11.9859 69.702 12.2278C69.635 12.4697 69.5065 12.6902 69.329 12.8677L62.0634 20.1333C61.928 20.2687 61.7671 20.3761 61.59 20.4492C61.413 20.5222 61.2232 20.5596 61.0317 20.559ZM61.1872 13.7395L61.8193 16.2636L66.6887 11.3942L66.0566 8.87011L61.1872 13.7395Z" fill="#2E4C99"/>
<path d="M21.964 37.9965C21.6081 37.9961 21.2647 37.865 20.999 37.6283C20.7333 37.3915 20.5638 37.0654 20.5225 36.7119C20.404 35.6913 20.3443 34.6647 20.3438 33.6371C20.3459 29.2662 21.4429 24.9654 23.5346 21.1274C25.6262 17.2894 28.6459 14.0364 32.3179 11.6655C35.99 9.29453 40.1974 7.8811 44.5561 7.55424C48.9148 7.22737 53.286 7.99748 57.2706 9.79426C57.6218 9.95304 57.8957 10.2449 58.0318 10.6055C58.1679 10.9662 58.1552 11.3662 57.9964 11.7175C57.8376 12.0688 57.5458 12.3426 57.1851 12.4787C56.8244 12.6148 56.4245 12.6021 56.0732 12.4433C52.5314 10.8463 48.6459 10.1619 44.7716 10.4525C40.8973 10.7431 37.1574 11.9995 33.8935 14.1071C30.6295 16.2146 27.9455 19.1061 26.0863 22.5176C24.2271 25.9291 23.252 29.7519 23.25 33.6371C23.2503 34.552 23.3032 35.4661 23.4084 36.3748C23.453 36.7575 23.3438 37.1422 23.1048 37.4444C22.8659 37.7466 22.5167 37.9415 22.134 37.9863C22.0776 37.9933 22.0208 37.9967 21.964 37.9965Z" fill="#2E4C99"/>
<path d="M71.0357 37.9965C70.9788 37.9967 70.922 37.9933 70.8656 37.9863C70.483 37.9415 70.1338 37.7466 69.8948 37.4444C69.6558 37.1422 69.5466 36.7575 69.5913 36.3748C69.6965 35.4661 69.7494 34.552 69.7496 33.6371C69.7574 30.3357 69.0562 27.071 67.6935 24.064C67.6148 23.89 67.5713 23.7023 67.5652 23.5115C67.5591 23.3207 67.5907 23.1306 67.6581 22.952C67.7255 22.7734 67.8274 22.6099 67.958 22.4707C68.0886 22.3315 68.2454 22.2194 68.4193 22.1407C68.7706 21.982 69.1706 21.9692 69.5312 22.1053C69.7098 22.1727 69.8734 22.2747 70.0126 22.4053C70.1518 22.5359 70.2639 22.6926 70.3425 22.8666C71.8752 26.25 72.6641 29.9228 72.6559 33.6371C72.6554 34.6647 72.5957 35.6913 72.4772 36.7119C72.4359 37.0654 72.2663 37.3915 72.0006 37.6283C71.7349 37.865 71.3915 37.9961 71.0357 37.9965Z" fill="#2E4C99"/>
<path d="M46.5 42.356C44.7756 42.356 43.0899 41.8446 41.6561 40.8866C40.2223 39.9286 39.1048 38.5669 38.4449 36.9737C37.785 35.3806 37.6124 33.6275 37.9488 31.9363C38.2852 30.245 39.1156 28.6915 40.3349 27.4721C41.5543 26.2528 43.1078 25.4224 44.7991 25.086C46.4903 24.7496 48.2434 24.9222 49.8365 25.5821C51.4297 26.242 52.7914 27.3595 53.7494 28.7933C54.7074 30.2271 55.2188 31.9128 55.2188 33.6372C55.2164 35.9489 54.2971 38.1652 52.6625 39.7997C51.028 41.4343 48.8117 42.3537 46.5 42.356ZM46.5 27.8247C45.3504 27.8247 44.2266 28.1656 43.2708 28.8043C42.3149 29.443 41.5699 30.3508 41.13 31.4129C40.69 32.475 40.5749 33.6437 40.7992 34.7712C41.0235 35.8987 41.5771 36.9344 42.3899 37.7473C43.2028 38.5602 44.2385 39.1137 45.366 39.338C46.4936 39.5623 47.6623 39.4472 48.7244 39.0073C49.7864 38.5673 50.6942 37.8223 51.3329 36.8665C51.9716 35.9106 52.3125 34.7868 52.3125 33.6372C52.3125 32.0956 51.7001 30.6172 50.6101 29.5272C49.52 28.4371 48.0416 27.8247 46.5 27.8247Z" fill="#2E4C99"/>
<path d="M55.6823 48.1685C55.3733 48.169 55.0721 48.0711 54.8226 47.8888C54.5731 47.7066 54.3881 47.4495 54.2947 47.155C54.2012 46.8604 54.204 46.5438 54.3028 46.251C54.4016 45.9582 54.5911 45.7045 54.8438 45.5267C57.3732 43.7528 59.2714 41.2188 60.2627 38.2928C61.2541 35.3668 61.2872 32.2009 60.357 29.2548C59.4269 26.3088 57.582 23.7358 55.0902 21.9095C52.5984 20.0831 49.5894 19.0985 46.5 19.0985C43.4106 19.0985 40.4016 20.0831 37.9098 21.9095C35.418 23.7358 33.5731 26.3088 32.643 29.2548C31.7128 32.2009 31.7459 35.3668 32.7373 38.2928C33.7286 41.2188 35.6268 43.7528 38.1562 45.5267C38.3123 45.6366 38.4452 45.7762 38.5473 45.9375C38.6495 46.0988 38.7189 46.2786 38.7515 46.4667C38.7842 46.6548 38.7795 46.8475 38.7376 47.0338C38.6958 47.2201 38.6177 47.3963 38.5078 47.5524C38.3979 47.7085 38.2583 47.8414 38.097 47.9435C37.9357 48.0457 37.7559 48.1151 37.5678 48.1477C37.3797 48.1804 37.187 48.1757 37.0007 48.1338C36.8145 48.092 36.6383 48.0139 36.4822 47.904C33.4482 45.7745 31.1717 42.7335 29.9832 39.2225C28.7946 35.7114 28.7559 31.913 29.8725 28.3784C30.9892 24.8438 33.2031 21.7571 36.193 19.5661C39.1829 17.3751 42.7932 16.1938 46.5 16.1938C50.2068 16.1938 53.8171 17.3751 56.807 19.5661C59.7969 21.7571 62.0108 24.8438 63.1275 28.3784C64.2441 31.913 64.2054 35.7114 63.0168 39.2225C61.8283 42.7335 59.5518 45.7745 56.5178 47.904C56.2732 48.0761 55.9814 48.1684 55.6823 48.1685Z" fill="#2E4C99"/>
</svg>
