<svg width="18" height="19" viewBox="0 0 18 19" fill="none" xmlns="http://www.w3.org/2000/svg">
<g clip-path="url(#clip0_2798_44770)">
<path d="M15.6724 1.26514H14.0842V2.85337C14.0842 3.17102 13.8195 3.38278 13.5548 3.38278C13.2901 3.38278 13.0254 3.17102 13.0254 2.85337V1.26514H4.55478V2.85337C4.55478 3.17102 4.29007 3.38278 4.02537 3.38278C3.76066 3.38278 3.49596 3.17102 3.49596 2.85337V1.26514H1.90772C1.1136 1.26514 0.53125 1.95337 0.53125 2.85337V4.75925H17.4724V2.85337C17.4724 1.95337 16.5195 1.26514 15.6724 1.26514ZM0.53125 5.87102V15.5593C0.53125 16.5122 1.1136 17.1475 1.96066 17.1475H15.7254C16.5724 17.1475 17.5254 16.4593 17.5254 15.5593V5.87102H0.53125ZM5.24301 14.7651H3.97243C3.76066 14.7651 3.5489 14.6063 3.5489 14.3416V13.0181C3.5489 12.8063 3.70772 12.5945 3.97243 12.5945H5.29596C5.50772 12.5945 5.71949 12.7534 5.71949 13.0181V14.3416C5.66654 14.6063 5.50772 14.7651 5.24301 14.7651ZM5.24301 10.0004H3.97243C3.76066 10.0004 3.5489 9.84161 3.5489 9.5769V8.25337C3.5489 8.04161 3.70772 7.82984 3.97243 7.82984H5.29596C5.50772 7.82984 5.71949 7.98867 5.71949 8.25337V9.5769C5.66654 9.84161 5.50772 10.0004 5.24301 10.0004ZM9.47831 14.7651H8.15478C7.94302 14.7651 7.73125 14.6063 7.73125 14.3416V13.0181C7.73125 12.8063 7.89007 12.5945 8.15478 12.5945H9.47831C9.69007 12.5945 9.90184 12.7534 9.90184 13.0181V14.3416C9.90184 14.6063 9.74302 14.7651 9.47831 14.7651ZM9.47831 10.0004H8.15478C7.94302 10.0004 7.73125 9.84161 7.73125 9.5769V8.25337C7.73125 8.04161 7.89007 7.82984 8.15478 7.82984H9.47831C9.69007 7.82984 9.90184 7.98867 9.90184 8.25337V9.5769C9.90184 9.84161 9.74302 10.0004 9.47831 10.0004ZM13.7136 14.7651H12.3901C12.1783 14.7651 11.9665 14.6063 11.9665 14.3416V13.0181C11.9665 12.8063 12.1254 12.5945 12.3901 12.5945H13.7136C13.9254 12.5945 14.1371 12.7534 14.1371 13.0181V14.3416C14.1371 14.6063 13.9783 14.7651 13.7136 14.7651ZM13.7136 10.0004H12.3901C12.1783 10.0004 11.9665 9.84161 11.9665 9.5769V8.25337C11.9665 8.04161 12.1254 7.82984 12.3901 7.82984H13.7136C13.9254 7.82984 14.1371 7.98867 14.1371 8.25337V9.5769C14.1371 9.84161 13.9783 10.0004 13.7136 10.0004Z" fill="#2E4C99"/>
</g>
<defs>
<clipPath id="clip0_2798_44770">
<rect width="18" height="18" fill="white" transform="translate(0.00195312 0.206299)"/>
</clipPath>
</defs>
</svg>
